<svg width="1280" height="540" viewBox="0 0 1280 540" fill="none" xmlns="http://www.w3.org/2000/svg" font-family="Inter, system-ui, sans-serif">
  <style>
    .mono{font-family:'JetBrains Mono',ui-monospace,monospace}
    .lbl{fill:#6B6B73;font-size:10px;letter-spacing:1.4px}
    .sec{fill:#A1A1AA}.pri{fill:#F5F5F4}
  </style>
  <rect width="1280" height="540" fill="#0A0A0B"/>

  <!-- header -->
  <line x1="0" y1="56" x2="1280" y2="56" stroke="#26262A"/>
  <text x="32" y="35" class="pri" font-size="15" font-weight="600">⚽ World Cup Money</text>
  <text x="232" y="35" class="pri" font-size="13" font-weight="500">Dashboard</text>
  <rect x="226" y="44" width="72" height="2" fill="#E8501F"/>
  <text x="320" y="35" class="sec" font-size="13">Markets</text>
  <text x="392" y="35" class="sec" font-size="13">Portfolio</text>
  <text x="470" y="35" class="sec" font-size="13">Planner</text>
  <rect x="1024" y="16" width="140" height="26" rx="13" fill="#1C1C1F" stroke="#26262A"/>
  <circle cx="1044" cy="29" r="3.5" fill="#22C55E"/>
  <text x="1056" y="33" class="sec" font-size="11">Live · 30s</text>
  <rect x="1176" y="16" width="72" height="26" rx="13" fill="#1C1C1F" stroke="#26262A"/>
  <text x="1212" y="33" class="mono pri" font-size="12" font-weight="500" text-anchor="middle">$45.71</text>

  <!-- LEFT: light feature card -->
  <rect x="32" y="80" width="288" height="288" rx="16" fill="#E8EAE3"/>
  <text x="56" y="112" font-size="10" letter-spacing="1.4px" fill="#52525b">PORTFOLIO VALUE</text>
  <text x="56" y="156" class="mono" font-size="40" font-weight="500" fill="#0A0A0B">$45.71</text>
  <rect x="56" y="172" width="84" height="22" rx="11" fill="#dcfce7"/>
  <text x="98" y="187" class="mono" font-size="11" font-weight="500" fill="#15803d" text-anchor="middle">+$25.71</text>
  <g fill="#0A0A0B">
    <rect x="56" y="300" width="26" height="40" rx="2"/>
    <rect x="90" y="278" width="26" height="62" rx="2"/>
    <rect x="124" y="290" width="26" height="50" rx="2"/>
    <rect x="158" y="252" width="26" height="88" rx="2"/>
    <rect x="192" y="270" width="26" height="70" rx="2"/>
    <rect x="226" y="232" width="26" height="108" rx="2" fill="#E8501F"/>
    <rect x="260" y="296" width="26" height="44" rx="2" fill="#0A0A0B" opacity="0.25"/>
  </g>

  <!-- LEFT: open positions -->
  <rect x="32" y="384" width="288" height="72" rx="16" fill="#141416" stroke="#26262A"/>
  <text x="56" y="412" class="lbl">OPEN POSITIONS</text>
  <text x="56" y="440" class="mono pri" font-size="22" font-weight="500">3</text>
  <rect x="264" y="404" width="32" height="32" rx="8" fill="#1C1C1F" stroke="#26262A"/>
  <text x="280" y="425" class="sec" font-size="14" text-anchor="middle">↗</text>

  <!-- MIDDLE: matches -->
  <rect x="336" y="80" width="384" height="288" rx="16" fill="#141416" stroke="#26262A"/>
  <text x="360" y="110" class="pri" font-size="14" font-weight="600">Matches <tspan fill="#EF4444" font-size="11" font-weight="400" class="mono">1 live</tspan></text>
  <rect x="640" y="94" width="56" height="24" rx="8" fill="#1C1C1F" stroke="#26262A"/>
  <text x="668" y="110" class="sec" font-size="11" text-anchor="middle">View all</text>
  <g class="mono">
    <!-- row 1 live -->
    <circle cx="364" cy="146" r="3.5" fill="#EF4444"/>
    <text x="378" y="143" class="pri" font-family="Inter" font-size="13" font-weight="500">Mexico vs South Korea</text>
    <text x="378" y="157" fill="#6B6B73" font-size="10">Live now</text>
    <text x="696" y="145" fill="#22C55E" font-size="13" font-weight="500" text-anchor="end">62%</text>
    <text x="696" y="158" fill="#6B6B73" font-size="9" text-anchor="end">Mexico</text>
    <line x1="360" y1="170" x2="696" y2="170" stroke="#26262A"/>
    <!-- row 2 -->
    <text x="378" y="191" class="pri" font-family="Inter" font-size="13" font-weight="500">USA vs Australia</text>
    <text x="378" y="205" fill="#6B6B73" font-size="10">Today 15:00</text>
    <text x="696" y="193" fill="#22C55E" font-size="13" font-weight="500" text-anchor="end">54%</text>
    <text x="696" y="206" fill="#6B6B73" font-size="9" text-anchor="end">USA</text>
    <line x1="360" y1="218" x2="696" y2="218" stroke="#26262A"/>
    <!-- row 3 -->
    <text x="378" y="239" class="pri" font-family="Inter" font-size="13" font-weight="500">Scotland vs Morocco</text>
    <text x="378" y="253" fill="#6B6B73" font-size="10">Today 18:00</text>
    <text x="696" y="241" fill="#22C55E" font-size="13" font-weight="500" text-anchor="end">48%</text>
    <text x="696" y="254" fill="#6B6B73" font-size="9" text-anchor="end">Morocco</text>
    <line x1="360" y1="266" x2="696" y2="266" stroke="#26262A"/>
    <!-- row 4 -->
    <text x="378" y="287" class="pri" font-family="Inter" font-size="13" font-weight="500">Brazil vs Haiti</text>
    <text x="378" y="301" fill="#6B6B73" font-size="10">Today 21:00</text>
    <text x="696" y="289" fill="#22C55E" font-size="13" font-weight="500" text-anchor="end">79%</text>
    <text x="696" y="302" fill="#6B6B73" font-size="9" text-anchor="end">Brazil</text>
  </g>

  <!-- MIDDLE: profit today -->
  <rect x="336" y="384" width="384" height="120" rx="16" fill="#141416" stroke="#26262A"/>
  <text x="360" y="414" class="lbl">PROFIT TODAY</text>
  <text x="360" y="456" class="mono" font-size="32" font-weight="500" fill="#22C55E">+128.6%</text>
  <rect x="640" y="452" width="24" height="28" rx="3" fill="#1C1C1F"/>
  <rect x="672" y="424" width="24" height="56" rx="3" fill="#22C55E"/>
  <text x="360" y="482" class="mono" font-size="11" fill="#6B6B73">from $20.00 start</text>

  <!-- RIGHT: suggestions -->
  <rect x="736" y="80" width="512" height="424" rx="16" fill="#141416" stroke="#26262A"/>
  <text x="760" y="110" class="pri" font-size="14" font-weight="600">✨ Suggested bets</text>
  <text x="760" y="128" fill="#6B6B73" font-size="11">signals, not guarantees</text>

  <!-- item 1 -->
  <rect x="760" y="144" width="464" height="104" rx="10" fill="#1C1C1F" stroke="#26262A"/>
  <text x="780" y="170" fill="#6B6B73" class="mono" font-size="10">#1</text>
  <text x="802" y="170" class="pri" font-size="13" font-weight="500">USA vs Australia</text>
  <text x="780" y="186" class="sec mono" font-size="11">USA — Moneyline</text>
  <text x="1204" y="170" fill="#E8501F" class="mono" font-size="18" font-weight="500" text-anchor="end">54%</text>
  <text x="1204" y="185" fill="#6B6B73" class="mono" font-size="10" text-anchor="end">54¢</text>
  <rect x="780" y="200" width="116" height="20" rx="10" fill="#3A1E14"/>
  <text x="838" y="214" fill="#E8501F" font-size="10" text-anchor="middle">↗ Money moving in</text>
  <rect x="902" y="200" width="92" height="20" rx="10" fill="#3A1E14"/>
  <text x="948" y="214" fill="#E8501F" font-size="10" text-anchor="middle">⚖ Low overhead</text>
  <rect x="780" y="226" width="58" height="16" rx="8" fill="#E8501F"/>
  <text x="809" y="238" fill="#fff" font-size="10" text-anchor="middle">+ Add</text>
  <rect x="846" y="226" width="74" height="16" rx="8" fill="#26262A"/>
  <text x="883" y="238" class="sec" font-size="10" text-anchor="middle">✨ AI take</text>

  <!-- item 2 -->
  <rect x="760" y="260" width="464" height="84" rx="10" fill="#1C1C1F" stroke="#26262A"/>
  <text x="780" y="286" fill="#6B6B73" class="mono" font-size="10">#2</text>
  <text x="802" y="286" class="pri" font-size="13" font-weight="500">Brazil vs Haiti</text>
  <text x="780" y="302" class="sec mono" font-size="11">Brazil — Moneyline</text>
  <text x="1204" y="286" fill="#E8501F" class="mono" font-size="18" font-weight="500" text-anchor="end">79%</text>
  <text x="1204" y="301" fill="#6B6B73" class="mono" font-size="10" text-anchor="end">79¢</text>
  <rect x="780" y="316" width="98" height="20" rx="10" fill="#3A1E14"/>
  <text x="829" y="330" fill="#E8501F" font-size="10" text-anchor="middle">🛡 Solid favorite</text>

  <!-- item 3 -->
  <rect x="760" y="356" width="464" height="84" rx="10" fill="#1C1C1F" stroke="#26262A"/>
  <text x="780" y="382" fill="#6B6B73" class="mono" font-size="10">#3</text>
  <text x="802" y="382" class="pri" font-size="13" font-weight="500">Scotland vs Morocco</text>
  <text x="780" y="398" class="sec mono" font-size="11">Morocco — Moneyline</text>
  <text x="1204" y="382" fill="#E8501F" class="mono" font-size="18" font-weight="500" text-anchor="end">48%</text>
  <text x="1204" y="397" fill="#6B6B73" class="mono" font-size="10" text-anchor="end">48¢</text>
  <rect x="780" y="412" width="104" height="20" rx="10" fill="#3A1E14"/>
  <text x="832" y="426" fill="#E8501F" font-size="10" text-anchor="middle">⚖ Balanced price</text>

  <text x="760" y="476" fill="#6B6B73" font-size="11">Built from live Polymarket data · World Cup matches only · places no bets</text>
</svg>
